<svg width="30" height="30" viewBox="0 0 30 30" fill="none" xmlns="http://www.w3.org/2000/svg">
<path d="M15 0C6.71552 0 0 6.71552 0 15C0 23.2845 6.71552 30 15 30C23.2845 30 30 23.2845 30 15C30 6.71552 23.2845 0 15 0ZM19.9772 21.629C19.7413 21.8637 19.494 22.1099 19.2931 22.3113C19.1123 22.4927 18.9847 22.7165 18.92 22.9591C18.8286 23.3014 18.7548 23.6474 18.6315 23.9794L17.5796 26.8131C16.7474 26.9946 15.8861 27.0968 15 27.0968V25.4407C15.1022 24.6774 14.5379 23.2476 13.6312 22.3409C13.2683 21.978 13.0645 21.4857 13.0645 20.9722V19.0361C13.0645 18.3321 12.6853 17.6849 12.069 17.3444C11.1998 16.8635 9.96351 16.1915 9.11673 15.7651C8.42238 15.4155 7.78004 14.9704 7.20242 14.4496L7.15403 14.406C6.74097 14.0332 6.37422 13.612 6.06169 13.1516C5.49435 12.3187 4.57016 10.9488 3.96956 10.0585C5.20766 7.30645 7.43891 5.09637 10.2115 3.89577L11.6637 4.62218C12.3073 4.94395 13.0645 4.47641 13.0645 3.75665V3.07319C13.5478 2.99516 14.0395 2.94556 14.5397 2.92681L16.2514 4.63851C16.6294 5.01653 16.6294 5.62923 16.2514 6.00726L15.9677 6.29032L15.3423 6.91573C15.1536 7.10443 15.1536 7.41109 15.3423 7.5998L15.626 7.88347C15.8147 8.07218 15.8147 8.37883 15.626 8.56754L15.1421 9.05141C15.0513 9.14209 14.9282 9.19299 14.7998 9.19294H14.256C14.1302 9.19294 14.0093 9.24193 13.9185 9.33024L13.3185 9.91391C13.245 9.98553 13.1961 10.0787 13.1789 10.1799C13.1618 10.2811 13.1772 10.3851 13.223 10.477L14.1659 12.3635C14.3268 12.6853 14.0927 13.0639 13.7335 13.0639H13.3923C13.2756 13.0639 13.1631 13.0216 13.0754 12.9454L12.5141 12.4579C12.3871 12.3477 12.2336 12.2724 12.0687 12.2396C11.9038 12.2067 11.7331 12.2173 11.5736 12.2704L9.68831 12.8988C9.54437 12.9468 9.41919 13.0389 9.3305 13.162C9.24181 13.2851 9.19411 13.433 9.19415 13.5847C9.19415 13.8587 9.34899 14.1085 9.59395 14.2312L10.2641 14.5663C10.8333 14.8512 11.4611 14.9994 12.0974 14.9994C12.7337 14.9994 13.4637 16.65 14.0329 16.9349H18.0702C18.5837 16.9349 19.0754 17.1387 19.4389 17.5016L20.2669 18.3296C20.6129 18.6757 20.8071 19.145 20.8071 19.6343C20.8069 20.005 20.7336 20.3721 20.5911 20.7144C20.4487 21.0568 20.2401 21.3676 19.9772 21.629ZM25.2218 16.1038C24.8716 16.0161 24.5661 15.8014 24.3659 15.5008L23.2784 13.8696C23.1193 13.6312 23.0344 13.3511 23.0344 13.0645C23.0344 12.7779 23.1193 12.4978 23.2784 12.2595L24.4633 10.4825C24.6036 10.2726 24.796 10.102 25.0222 9.98952L25.8073 9.59698C26.625 11.2252 27.0968 13.0567 27.0968 15C27.0968 15.5244 27.052 16.0379 26.9867 16.5448L25.2218 16.1038Z" fill="#4E2D73"/>
</svg>
